<svg xmlns="http://www.w3.org/2000/svg" width="266.903" height="270.993" viewBox="0 0 266.903 270.993">
  <g id="noun_Hotel_959371" transform="translate(-35.451)">
    <path id="Path_6" data-name="Path 6" d="M13.809,240.345H273.894a3.409,3.409,0,0,0,0-6.817H260.941V223.3a15.693,15.693,0,0,0,12.271-15.339v-9.544a15.638,15.638,0,0,0-15.68-15.68,15.86,15.86,0,0,0-15.68,15.68v9.544A15.76,15.76,0,0,0,254.124,223.3v10.226H235.376V174.557h3.068a3.22,3.22,0,0,0,3.409-3.409V151.037a3.22,3.22,0,0,0-3.409-3.409h-8.863V56.956h3.409a3.22,3.22,0,0,0,3.409-3.409V30.709A3.22,3.22,0,0,0,232.99,27.3H54.713A3.22,3.22,0,0,0,51.3,30.709V53.547a3.22,3.22,0,0,0,3.409,3.409h3.409V233.528H38.011V217.166A14.62,14.62,0,0,0,48.919,203.19V185.124a14.317,14.317,0,0,0-28.633,0V203.19a14.62,14.62,0,0,0,10.908,13.976v16.362H13.809a3.409,3.409,0,0,0,0,6.817ZM248.67,207.962v-9.544a8.8,8.8,0,0,1,8.863-8.863,9.024,9.024,0,0,1,8.863,8.863v9.544a8.863,8.863,0,0,1-17.725,0ZM26.762,203.19V185.124a7.5,7.5,0,0,1,15,0V203.19a7.5,7.5,0,0,1-15,0Zm173.845,30.338H182.881V199.1h17.384v34.428Zm-25.906,0H157.316V199.1H174.7Zm53.858,0H207.424V195.691a3.22,3.22,0,0,0-3.409-3.409H153.566a3.22,3.22,0,0,0-3.409,3.409v38.178H126.978V174.557H228.217v58.971Zm6.477-65.788H120.5V154.445H235.035Zm-12.271-20.111H147.09V56.956h75.674v90.672ZM58.122,34.117H229.581V50.138H58.122ZM64.94,56.956h75.674v90.672h-23.52a3.22,3.22,0,0,0-3.409,3.409v20.111a3.22,3.22,0,0,0,3.409,3.409H120.5v59.312H64.94Z" transform="translate(25.051 30.648)"/>
    <path id="Path_7" data-name="Path 7" d="M57.209,41.3A3.22,3.22,0,0,0,53.8,44.709V60.048a3.409,3.409,0,1,0,6.817,0V44.709A3.416,3.416,0,0,0,57.209,41.3Z" transform="translate(129.589 64.37)"/>
    <path id="Path_8" data-name="Path 8" d="M63.709,41.3A3.22,3.22,0,0,0,60.3,44.709V60.048a3.409,3.409,0,1,0,6.817,0V44.709A3.22,3.22,0,0,0,63.709,41.3Z" transform="translate(145.246 64.37)"/>
    <path id="Path_9" data-name="Path 9" d="M70.209,41.3A3.22,3.22,0,0,0,66.8,44.709V60.048a3.409,3.409,0,1,0,6.817,0V44.709A3.22,3.22,0,0,0,70.209,41.3Z" transform="translate(160.903 64.37)"/>
    <path id="Path_10" data-name="Path 10" d="M57.209,53.1A3.22,3.22,0,0,0,53.8,56.509V71.848a3.409,3.409,0,1,0,6.817,0V56.509A3.416,3.416,0,0,0,57.209,53.1Z" transform="translate(129.589 92.793)"/>
    <path id="Path_11" data-name="Path 11" d="M63.709,53.1A3.22,3.22,0,0,0,60.3,56.509V71.848a3.409,3.409,0,0,0,6.817,0V56.509A3.22,3.22,0,0,0,63.709,53.1Z" transform="translate(145.246 92.793)"/>
    <path id="Path_12" data-name="Path 12" d="M70.209,53.1A3.22,3.22,0,0,0,66.8,56.509V71.848a3.409,3.409,0,0,0,6.817,0V56.509A3.22,3.22,0,0,0,70.209,53.1Z" transform="translate(160.903 92.793)"/>
    <path id="Path_13" data-name="Path 13" d="M33.009,41.3A3.22,3.22,0,0,0,29.6,44.709V60.048a3.22,3.22,0,0,0,3.409,3.409,3.22,3.22,0,0,0,3.409-3.409V44.709A3.416,3.416,0,0,0,33.009,41.3Z" transform="translate(71.298 64.37)"/>
    <path id="Path_14" data-name="Path 14" d="M39.509,41.3A3.22,3.22,0,0,0,36.1,44.709V60.048a3.409,3.409,0,1,0,6.817,0V44.709A3.416,3.416,0,0,0,39.509,41.3Z" transform="translate(86.955 64.37)"/>
    <path id="Path_15" data-name="Path 15" d="M46.009,63.357a3.22,3.22,0,0,0,3.409-3.409V44.609a3.409,3.409,0,0,0-6.817,0V59.948A3.416,3.416,0,0,0,46.009,63.357Z" transform="translate(102.612 64.129)"/>
    <path id="Path_16" data-name="Path 16" d="M33.009,53.1A3.22,3.22,0,0,0,29.6,56.509V71.848a3.22,3.22,0,0,0,3.409,3.409,3.22,3.22,0,0,0,3.409-3.409V56.509A3.416,3.416,0,0,0,33.009,53.1Z" transform="translate(71.298 92.793)"/>
    <path id="Path_17" data-name="Path 17" d="M39.509,53.1A3.22,3.22,0,0,0,36.1,56.509V71.848a3.409,3.409,0,1,0,6.817,0V56.509A3.416,3.416,0,0,0,39.509,53.1Z" transform="translate(86.955 92.793)"/>
    <path id="Path_18" data-name="Path 18" d="M46.009,75.157a3.22,3.22,0,0,0,3.409-3.409V56.409a3.409,3.409,0,0,0-6.817,0V71.748A3.416,3.416,0,0,0,46.009,75.157Z" transform="translate(102.612 92.552)"/>
    <path id="Path_19" data-name="Path 19" d="M33.009,64.9A3.22,3.22,0,0,0,29.6,68.309V83.648a3.22,3.22,0,0,0,3.409,3.409,3.22,3.22,0,0,0,3.409-3.409V68.309A3.416,3.416,0,0,0,33.009,64.9Z" transform="translate(71.298 121.216)"/>
    <path id="Path_20" data-name="Path 20" d="M39.509,64.9A3.22,3.22,0,0,0,36.1,68.309V83.648a3.409,3.409,0,1,0,6.817,0V68.309A3.416,3.416,0,0,0,39.509,64.9Z" transform="translate(86.955 121.216)"/>
    <path id="Path_21" data-name="Path 21" d="M33.009,76.7A3.22,3.22,0,0,0,29.6,80.109V95.448a3.22,3.22,0,0,0,3.409,3.409,3.22,3.22,0,0,0,3.409-3.409V80.109A3.416,3.416,0,0,0,33.009,76.7Z" transform="translate(71.298 149.639)"/>
    <path id="Path_22" data-name="Path 22" d="M39.509,76.7A3.22,3.22,0,0,0,36.1,80.109V95.448a3.409,3.409,0,1,0,6.817,0V80.109A3.416,3.416,0,0,0,39.509,76.7Z" transform="translate(86.955 149.639)"/>
    <path id="Path_23" data-name="Path 23" d="M54.99,24.617A4.118,4.118,0,0,0,52.6,22.231l-8.863-2.386L38.969,12a3.476,3.476,0,0,0-2.727-1.7A3.036,3.036,0,0,0,33.515,12l-4.772,7.84-8.863,2.386a3.368,3.368,0,0,0-2.386,2.386,4.2,4.2,0,0,0,.682,3.409l6.136,7.158-.682,9.2a3.7,3.7,0,0,0,1.363,3.068A3.908,3.908,0,0,0,28.4,47.8l8.522-3.409L45.446,47.8c.341,0,.682.341,1.363.341a4.845,4.845,0,0,0,2.045-.682,3.323,3.323,0,0,0,1.363-3.068l-.682-9.2,6.136-7.158C54.99,27,55.331,25.639,54.99,24.617ZM42.378,31.434A3.245,3.245,0,0,0,41.7,33.82l.341,5.113-4.772-2.045c-.341,0-.682-.341-1.363-.341s-1.023,0-1.363.341l-4.772,2.386.341-5.113a4.927,4.927,0,0,0-.682-2.386l-3.409-4.09,5.113-1.363a3.13,3.13,0,0,0,2.045-1.363L35.9,20.526l2.727,4.431a2.8,2.8,0,0,0,2.045,1.363l5.113,1.363Z" transform="translate(41.817 -10.3)"/>
    <path id="Path_24" data-name="Path 24" d="M68.431,24.5a4.118,4.118,0,0,0-2.386-2.386l-8.863-2.386-4.772-7.84a3.5,3.5,0,0,0-5.795,0l-4.772,7.84L32.981,22.11A3.368,3.368,0,0,0,30.594,24.5a4.2,4.2,0,0,0,.682,3.409l6.136,7.158-.682,9.2a3.7,3.7,0,0,0,1.363,3.068,4.845,4.845,0,0,0,2.045.682,2.049,2.049,0,0,0,1.363-.341l8.522-3.409,8.522,3.409a4.033,4.033,0,0,0,3.409-.341,3.323,3.323,0,0,0,1.363-3.068l-.682-9.2L68.772,27.9A11.6,11.6,0,0,0,68.431,24.5ZM55.819,31.314a3.245,3.245,0,0,0-.682,2.386l.341,5.113-4.772-2.045c-.341,0-.682-.341-1.363-.341s-1.023,0-1.363.341l-4.772,2.045.341-5.113a4.927,4.927,0,0,0-.682-2.386l-3.409-4.09L44.57,25.86A3.13,3.13,0,0,0,46.615,24.5l2.727-4.431L52.069,24.5a2.8,2.8,0,0,0,2.045,1.363l5.113,1.363Z" transform="translate(73.372 -10.18)"/>
    <path id="Path_25" data-name="Path 25" d="M81.731,24.5a4.118,4.118,0,0,0-2.386-2.386l-8.863-2.386-4.772-7.84a3.5,3.5,0,0,0-5.795,0l-4.772,7.84L46.281,22.11A3.368,3.368,0,0,0,43.894,24.5a4.2,4.2,0,0,0,.682,3.409l6.136,7.158-.682,9.2a3.7,3.7,0,0,0,1.363,3.068,3.909,3.909,0,0,0,3.409.341l8.522-3.409,8.522,3.409c.341,0,.682.341,1.363.341a4.845,4.845,0,0,0,2.045-.682,3.323,3.323,0,0,0,1.363-3.068l-.682-9.2L82.072,27.9C81.731,26.882,82.072,25.519,81.731,24.5ZM68.778,31.314A3.245,3.245,0,0,0,68.1,33.7l.341,5.113-4.772-2.045c-.341,0-.682-.341-1.363-.341s-1.023,0-1.363.341l-4.772,2.045.341-5.113a4.927,4.927,0,0,0-.682-2.386l-3.409-4.09,5.113-1.363A3.13,3.13,0,0,0,59.575,24.5L62.3,20.065,65.029,24.5a2.8,2.8,0,0,0,2.045,1.363l5.113,1.363Z" transform="translate(105.408 -10.18)"/>
    <path id="Path_26" data-name="Path 26" d="M94.69,24.617A4.118,4.118,0,0,0,92.3,22.231l-8.863-2.386L78.669,12a3.476,3.476,0,0,0-2.727-1.7A3.036,3.036,0,0,0,73.215,12l-4.772,7.84-8.863,2.386a3.368,3.368,0,0,0-2.386,2.386,4.2,4.2,0,0,0,.682,3.409l6.136,7.158-.682,9.2a3.7,3.7,0,0,0,1.363,3.068A3.909,3.909,0,0,0,68.1,47.8l8.522-3.409L85.146,47.8c.341,0,.682.341,1.363.341a4.845,4.845,0,0,0,2.045-.682,3.323,3.323,0,0,0,1.363-3.068l-.682-9.2,6.136-7.158C94.69,27,95.031,25.639,94.69,24.617ZM81.737,31.434a3.245,3.245,0,0,0-.682,2.386l.341,5.113-4.772-2.045a2.912,2.912,0,0,0-2.386,0l-4.772,2.045.341-5.113a4.927,4.927,0,0,0-.682-2.386l-3.409-4.09,4.772-1.023a3.13,3.13,0,0,0,2.045-1.363l2.727-4.431,2.727,4.431a2.8,2.8,0,0,0,2.045,1.363l5.113,1.363Z" transform="translate(137.444 -10.3)"/>
    <path id="Path_27" data-name="Path 27" d="M108.131,24.5a4.118,4.118,0,0,0-2.386-2.386l-8.863-2.386-4.772-7.84a3.5,3.5,0,0,0-5.795,0l-4.772,7.84L72.681,22.11A3.368,3.368,0,0,0,70.294,24.5a4.2,4.2,0,0,0,.682,3.409l6.136,7.158-.682,9.2a3.7,3.7,0,0,0,1.363,3.068,3.909,3.909,0,0,0,3.409.341l8.522-3.409,8.522,3.409c.341,0,.682.341,1.363.341a4.845,4.845,0,0,0,2.045-.682,3.323,3.323,0,0,0,1.363-3.068l-.682-9.2,6.136-7.158C108.131,26.882,108.472,25.519,108.131,24.5ZM95.519,31.314a3.245,3.245,0,0,0-.682,2.386l.341,5.113-5.113-1.7c-.341,0-.682-.341-1.363-.341s-1.023,0-1.363.341l-4.772,2.045.341-5.113a4.927,4.927,0,0,0-.682-2.386l-3.409-4.09L83.929,26.2a3.13,3.13,0,0,0,2.045-1.363L88.7,20.406l2.727,4.431A2.8,2.8,0,0,0,93.474,26.2l5.113,1.363Z" transform="translate(168.998 -10.18)"/>
  </g>
</svg>
