<svg xmlns="http://www.w3.org/2000/svg" width="276.959" height="277.086" viewBox="0 0 276.959 277.086">
  <g id="noun_Breakfast_959368" transform="translate(-33.32)">
    <path id="Path_1" data-name="Path 1" d="M159.653,57.208h0a14.431,14.431,0,0,0-1.7-2.386c-.341-.341-.341-.682-.682-.682-.341-.341-.682-1.023-1.023-1.363L141.928,38.46h0l-1.023-1.023-1.023-1.023c-.682-.341-1.363-1.023-2.045-1.363l-.341-.341c-.682-.341-1.7-.682-2.386-1.023h0a19.941,19.941,0,0,0-15.339,0,14.075,14.075,0,0,0-3.75,2.386L99.66,26.53c-5.454-3.068-11.931-3.75-17.384-1.023A12.037,12.037,0,0,0,75.8,31.984l-1.7,3.75L63.868,32.666a14.553,14.553,0,0,0-6.477-.682c-7.5.682-13.976,6.817-18.407,17.384a3.382,3.382,0,0,0,1.7,4.431l22.5,9.544a14.3,14.3,0,0,0,6.477,11.931l13.294,8.181c-.682,3.409,0,7.158,2.727,9.544h0l16.362,16.362a9.811,9.811,0,0,0,7.158,3.068,5.8,5.8,0,0,0,2.386-.341l8.181,13.294a13.716,13.716,0,0,0,11.59,6.477h0l9.544,22.5a3.276,3.276,0,0,0,3.068,2.045,2.05,2.05,0,0,0,1.363-.341c10.226-4.09,16.362-10.567,17.384-18.407a14.554,14.554,0,0,0-.682-6.477l-3.068-10.226,3.75-1.7c2.727-1.023,4.772-3.409,6.477-6.477a19.585,19.585,0,0,0-1.023-17.384l-9.544-16.362a10.153,10.153,0,0,0,2.386-3.75A19.86,19.86,0,0,0,159.653,57.208Zm-69.2,26.247,11.249-15.68,18.066-25.225V42.21l.341-.341c.341-.682,1.023-1.363,3.409-2.045a15.016,15.016,0,0,1,10.226.682,1.19,1.19,0,0,1,.682.341c.341.341.682.341,1.023.682a2.661,2.661,0,0,1,1.363,1.363l.341.341,13.976,13.976a13.486,13.486,0,0,1,3.409,13.976,7.288,7.288,0,0,1-2.045,3.409l-.341.341h-.341l-24.2,17.384L111.25,104.249a3.609,3.609,0,0,1-4.431-.341L90.8,87.887A3.212,3.212,0,0,1,90.456,83.455Zm-32.042-45a15.286,15.286,0,0,1,3.75.341l9.544,3.068L65.573,56.527l-18.066-7.84C49.211,44.255,52.96,39.142,58.414,38.46ZM70.686,60.617,81.934,34.37A6.109,6.109,0,0,1,85,31.643a10.5,10.5,0,0,1,4.431-1.023,15.29,15.29,0,0,1,6.477,1.7l15.68,9.2L86.025,77.32,73.072,69.48A8.56,8.56,0,0,1,70.686,60.617ZM155.9,132.882a7.368,7.368,0,0,1,.341,3.75c-.682,5.454-5.795,9.2-10.226,11.249l-7.84-18.066,14.658-6.136Zm7.158-23.52c-1.023,2.386-2.045,3.068-2.727,3.068l-26.247,11.249a7,7,0,0,1-8.522-2.727L117.726,108l35.792-25.565,9.2,15.68C164.426,101.863,164.766,105.953,163.062,109.362Z" transform="translate(93.274 22.513)"/>
    <path id="Path_2" data-name="Path 2" d="M50.424,50.734c-54.2,54.2-54.2,142.144,0,196a138.254,138.254,0,0,0,195.661,0c54.2-53.858,54.2-141.8,0-196A138.356,138.356,0,0,0,50.424,50.734ZM241.312,241.963c-51.472,51.472-134.985,51.472-186.116,0A131.6,131.6,0,0,1,241.312,55.847C292.784,106.978,292.784,190.491,241.312,241.963Z" transform="translate(23.545 -10.212)"/>
    <path id="Path_3" data-name="Path 3" d="M135.669,15.4C69.2,15.4,15,69.6,15,136.41c0,66.47,54.2,120.669,120.669,120.669s120.669-54.2,120.669-120.669C256.337,69.6,202.139,15.4,135.669,15.4Zm0,234.861c-62.72,0-113.851-51.131-113.851-113.851S72.948,22.558,135.669,22.558,249.52,73.689,249.52,136.41,198.389,250.261,135.669,250.261Z" transform="translate(36.131 2.283)"/>
    <path id="Path_4" data-name="Path 4" d="M117.5,62.376a3.255,3.255,0,0,0-3.409-.682L103.523,65.1,86.82,49.082c-11.249-10.908-30.678-8.863-43.291,4.09-7.84,8.522-11.249,19.771-9.2,30l-9.2,9.544A3.1,3.1,0,0,0,24.1,95.1l.341,18.066a3.1,3.1,0,0,0,1.023,2.386l57.267,54.2a3.3,3.3,0,0,0,4.772,0l40.223-42.268a3.3,3.3,0,0,0,0-4.772L70.459,68.171a3.1,3.1,0,0,0-2.386-1.023l-18.066.682a3.1,3.1,0,0,0-2.386,1.023l-7.158,7.84A27.219,27.219,0,0,1,48.3,57.944c9.885-10.226,24.884-11.931,33.405-3.75L98.751,70.557l-2.727,9.885a3.27,3.27,0,0,0,1.023,3.409L114.09,99.872a3.3,3.3,0,0,0,4.772,0L134.2,83.51a3.3,3.3,0,0,0,0-4.772ZM85.457,162.592,58.528,137.027l35.451-37.5L120.908,125.1Zm-33.746-87.6,15-.682L88.525,95.1,53.074,132.6,31.258,111.8V96.463Zm64.766,17.384L103.523,80.1l2.386-8.181h0l.341-.341,8.181-2.727,12.953,12.271Z" transform="translate(58.05 66.431)"/>
    <path id="Path_5" data-name="Path 5" d="M32.409,66.431a3.1,3.1,0,0,0,2.386-1.023l4.772-5.113a3.374,3.374,0,1,0-4.772-4.772l-4.772,5.113a3.3,3.3,0,0,0,0,4.772A4.531,4.531,0,0,0,32.409,66.431Z" transform="translate(69.853 96.464)"/>
  </g>
</svg>
