<svg xmlns="http://www.w3.org/2000/svg" xmlns:xlink="http://www.w3.org/1999/xlink" xml:space="preserve" version="1.1" style="shape-rendering:geometricPrecision;text-rendering:geometricPrecision;image-rendering:optimizeQuality;" viewBox="0 0 326 400" x="0px" y="0px" fill-rule="evenodd" clip-rule="evenodd"><defs><style type="text/css">
   
    .fil0 {fill:none}
    .fil1 {fill:black}
   
  </style></defs><g><rect class="fil0" width="326" height="320"/><path class="fil1" d="M219 100c21,-5 37,-3 41,5 9,16 -31,56 -90,88 -59,31 -114,43 -123,27 -4,-9 3,-22 19,-37 -8,10 -12,19 -8,25 8,15 57,6 108,-22 52,-28 87,-63 79,-79 -4,-6 -13,-8 -26,-7z"/><path class="fil1" d="M118 96c42,-23 94,-4 113,40 -30,34 -97,70 -141,76 -27,-39 -14,-93 28,-116zm3 6c35,-18 79,-7 99,27 -21,-20 -60,-39 -99,-27zm114 49c7,34 -8,69 -40,87 -33,17 -71,10 -96,-14 45,-12 102,-43 136,-73z"/></g><text x="0" y="335" fill="#000000" font-size="5px" font-weight="bold" font-family="'Helvetica Neue', Helvetica, Arial-Unicode, Arial, Sans-serif">Created by RULI</text><text x="0" y="340" fill="#000000" font-size="5px" font-weight="bold" font-family="'Helvetica Neue', Helvetica, Arial-Unicode, Arial, Sans-serif">from the Noun Project</text></svg>